<?xml version="1.0" encoding="UTF-8"?>
<svg xmlns="http://www.w3.org/2000/svg" style="display:none">
  <symbol id="bolt" viewBox="0 0 24 24">
    <path d="M13 2L3 14h7l-1 8 12-15h-8l0-5z" fill="currentColor"/>
  </symbol>

  <symbol id="gear" viewBox="0 0 24 24">
    <g fill="none" stroke="currentColor" stroke-width="2" stroke-linecap="round" stroke-linejoin="round">
      <circle cx="12" cy="12" r="3.2"/>
      <path d="M12 2.8v2.2M12 19v2.2M2.8 12H5M19 12h2.2M4.4 4.4l1.6 1.6M18 18l1.6 1.6M19.6 4.4L18 6M6 18l-1.6 1.6"/>
      <circle cx="12" cy="12" r="8"/>
    </g>
  </symbol>

  <symbol id="file" viewBox="0 0 24 24">
    <g fill="none" stroke="currentColor" stroke-width="2" stroke-linecap="round" stroke-linejoin="round">
      <path d="M14 2H7a2 2 0 0 0-2 2v16a2 2 0 0 0 2 2h10a2 2 0 0 0 2-2V8z"/>
      <path d="M14 2v6h6"/>
      <path d="M8 13h8M8 17h6"/>
    </g>
  </symbol>

  <symbol id="home" viewBox="0 0 24 24">
    <g fill="none" stroke="currentColor" stroke-width="2" stroke-linecap="round" stroke-linejoin="round">
      <path d="M3 11l9-8 9 8"/>
      <path d="M5 10v10h14V10"/>
      <path d="M9 20v-6h6v6"/>
    </g>
  </symbol>

  <symbol id="pin" viewBox="0 0 24 24">
    <g fill="none" stroke="currentColor" stroke-width="2" stroke-linecap="round" stroke-linejoin="round">
      <path d="M12 22s7-5.3 7-12a7 7 0 1 0-14 0c0 6.7 7 12 7 12z"/>
      <circle cx="12" cy="10" r="2.2"/>
    </g>
  </symbol>

  <symbol id="phone" viewBox="0 0 24 24">
    <g fill="none" stroke="currentColor" stroke-width="2" stroke-linecap="round" stroke-linejoin="round">
      <path d="M22 16.6v3a2 2 0 0 1-2.2 2 19.8 19.8 0 0 1-8.6-3.1 19.4 19.4 0 0 1-6-6A19.8 19.8 0 0 1 2.4 3.2 2 2 0 0 1 4.4 1h3a2 2 0 0 1 2 1.7c.1.8.3 1.6.6 2.3a2 2 0 0 1-.5 2.1L8.2 8.4a16 16 0 0 0 6 6l1.3-1.3a2 2 0 0 1 2.1-.5c.7.3 1.5.5 2.3.6a2 2 0 0 1 1.8 2.4z"/>
    </g>
  </symbol>

  <symbol id="chat" viewBox="0 0 24 24">
    <g fill="none" stroke="currentColor" stroke-width="2" stroke-linecap="round" stroke-linejoin="round">
      <path d="M21 12a8 8 0 0 1-8 8H7l-4 3 1.2-4.8A8 8 0 0 1 3 12a8 8 0 0 1 8-8h2a8 8 0 0 1 8 8z"/>
      <path d="M8 12h.01M12 12h.01M16 12h.01"/>
    </g>
  </symbol>

  <symbol id="globe" viewBox="0 0 24 24">
    <g fill="none" stroke="currentColor" stroke-width="2" stroke-linecap="round" stroke-linejoin="round">
      <circle cx="12" cy="12" r="9"/>
      <path d="M3 12h18"/>
      <path d="M12 3a14 14 0 0 1 0 18"/>
      <path d="M12 3a14 14 0 0 0 0 18"/>
    </g>
  </symbol>
</svg>

